<?xml version="1.0" encoding="UTF-8"?>
<!DOCTYPE svg PUBLIC "-//W3C//DTD SVG 1.1//EN" "http://www.w3.org/Graphics/SVG/1.1/DTD/svg11.dtd">
<!-- Creator: CorelDRAW -->
<svg xmlns="http://www.w3.org/2000/svg" xml:space="preserve" width="20.5661mm" height="16mm" version="1.1" style="shape-rendering:geometricPrecision; text-rendering:geometricPrecision; image-rendering:optimizeQuality; fill-rule:evenodd; clip-rule:evenodd"
viewBox="0 0 62.93 48.96"
 xmlns:xlink="http://www.w3.org/1999/xlink"
 xmlns:xodm="http://www.corel.com/coreldraw/odm/2003">
 <defs>
  <style type="text/css">
   <![CDATA[
    .fil0 {fill:black}
    .fil4 {fill:#BE694E}
    .fil2 {fill:#C67D65}
    .fil5 {fill:#DBB56A}
    .fil3 {fill:#EECA82}
    .fil1 {fill:#F4DDB1}
   ]]>
  </style>
 </defs>
 <g id="Camada_x0020_1">
  <metadata id="CorelCorpID_0Corel-Layer"/>
  <g id="_1951085587536">
   <path class="fil0" d="M26.62 48.05c-0.31,-1.2 -0.77,-1.03 -2.04,-1.02 -1.01,0 -2.02,0 -3.06,0l-0.02 -1.53 -0 -10.54 0.02 -1.52 19.9 0 -0.04 13.58 -10.53 0c-1.35,-0 -2.22,-0.29 -2.45,1.02 0.18,0.91 0.65,0.87 1.71,0.86l29.13 -0c0.68,0 3.2,0.26 3.69,-0.56l0 -0.68c-0.03,-0.07 -0.07,-0.15 -0.11,-0.23 -0.51,-0.88 -3.47,-0.49 -4.8,-0.49l0 -13.52c0.94,0 1.88,-0 2.83,0 1.11,0 1.98,0.21 2.09,-0.83l0 -1.49c-0.12,-1.34 -0.51,-2.64 -0.84,-3.47 -1.3,-3.24 -3.82,-4.93 -5.95,-6.96 -0.32,-0.31 -0.5,-0.39 -0.8,-0.68 -2.47,-2.31 -6.21,-5.21 -8.48,-7.38 -0.32,-0.3 -0.48,-0.37 -0.8,-0.68 -0.16,-0.15 -0.64,-0.58 -0.81,-0.67 -0.5,-0.25 -0.77,-0.03 -1.13,0.15 -0.37,1.06 -0.26,1.16 1.07,2.25l7.11 6.16c1.46,1.39 3.32,2.8 4.96,4.38l1.41 1.43c0.04,0.06 0.16,0.23 0.19,0.28 0.15,0.26 0.02,-0.08 0.09,0.22 1.3,0.92 2,4.03 2.1,5.44l-3.06 0.01 -0.21 -1.61c-0.59,-1.61 -0.66,-2.06 -1.58,-3.36 -2.88,-4.08 -3.72,-1.81 -3.3,-1.01 0.24,0.46 0.75,0.83 1.18,1.29 0.61,0.65 1.46,1.95 1.78,3.15l0.26 1.55 -14.94 -0.03 -0.01 -6.66c-0.12,-0.56 -0.56,-1.03 -1.25,-0.74 -0.61,0.25 -0.58,0.88 -0.58,1.62 0.01,1.42 0.01,2.85 -0,4.26l0 1.54 -6.76 -0.03 -0.01 -6.66c-0.12,-0.56 -0.56,-1.03 -1.25,-0.74 -0.61,0.25 -0.58,0.88 -0.58,1.62 0.01,1.42 0.01,2.85 -0,4.26l0 1.54 -1.85 -0.03 -0.01 -6.66c-0.12,-0.56 -0.56,-1.03 -1.25,-0.74 -0.61,0.25 -0.58,0.88 -0.58,1.62 0.01,1.42 0.01,2.85 -0,4.26l0 1.53 -11.82 0c-1.29,0 -2.75,-0.36 -2.95,0.92 0.21,1.23 1.19,0.92 2.45,0.92l0.01 1.52 -0 10.54 -0.05 1.53 -3.01 0 -0.02 -1.53c0,-0.99 -0,-1.99 0,-2.98 0,-0.97 0.12,-2.02 -0.98,-1.97 -1.03,0.05 -0.87,1.13 -0.87,2.09 0,0.95 -0,1.91 0,2.86l-0.03 1.53 -3.03 0 -0.02 -1.53 -0 -10.54 0.02 -1.52c0.77,0 1.55,0.01 2.33,0.01 0.88,-0.01 1.2,-0.12 1.34,-0.93 -0.12,-0.76 -0.53,-0.92 -1.34,-0.93 -0.77,-0.01 -1.54,0.01 -2.33,0l0.29 -1.54c0.66,-2.54 2.67,-3.76 3,-4.52 0.35,-0.81 -0.57,-2.92 -3.39,1.16 -0.83,1.21 -0.99,1.78 -1.53,3.29l-0.19 1.62 -3.09 -0.04 0.2 -1.5c0.25,-1.14 0.65,-2.12 1.18,-2.98 0.58,-0.94 2.15,-2.73 2.92,-3.35 1.76,-1.42 3.9,-3.49 5.58,-4.86 1.78,-1.45 5.19,-4.64 6.66,-5.76 1.22,-0.94 3.24,-2.84 4.47,-3.89 0.38,-0.32 2,-1.8 2.34,-1.88l12.53 -0c0.37,0.08 0.89,0.65 1.22,0.91 1.8,1.4 2.07,2.55 3.58,1.84 0.63,-1.39 -0.72,-1.67 -2.12,-3.05l-3.81 -3.32c-0.3,-0.28 -0.48,-0.37 -0.8,-0.68 -0.3,-0.29 -0.44,-0.34 -0.74,-0.61 -1.52,-1.41 -2.97,-3.03 -4.58,-2.18 -0.63,0.33 -3.9,3.32 -4.59,3.89 -0.35,0.29 -0.46,0.36 -0.79,0.68 -0.32,0.31 -0.48,0.36 -0.8,0.67 -0.32,0.31 -0.39,0.36 -0.72,0.63 -1.35,1.09 -4.15,3.74 -5.39,4.69l-9.15 7.94c-0.36,0.28 -0.4,0.34 -0.72,0.64l-3.1 2.68c-0.37,0.29 -0.46,0.37 -0.78,0.7 -0.93,0.93 -1.19,1.14 -2.02,2.16 -0.53,0.65 -1.31,2 -1.63,2.79 -0.36,0.91 -0.71,2.16 -0.81,3.47l0 1.42c0.1,1.03 0.89,0.82 1.97,0.82 0.98,-0 1.97,0 2.95,0l0 13.52c-1.39,0 -4.49,-0.44 -4.92,0.66l0 0.6c0.01,0.05 0.03,0.1 0.05,0.15 0.23,0.6 0.88,0.56 1.67,0.56 7.72,-0.07 16,0.13 23.61,0.01 0.91,-0.01 1.02,-0.24 1.3,-0.87z"/>
   <path class="fil1" d="M2.06 30.05c0.88,0 2.28,0.13 3.08,-0.07 0.54,-1.51 0.69,-2.08 1.53,-3.29 2.82,-4.08 3.74,-1.97 3.39,-1.16 -0.33,0.76 -2.34,1.98 -3,4.52l20 0.01c0.01,-1.42 0.01,-2.84 0,-4.26 -0.01,-0.74 -0.03,-1.37 0.58,-1.62 0.69,-0.29 1.13,0.17 1.25,0.74 0.48,1.01 -0.19,3.83 0.2,5.15l1.66 0c0.01,-1.42 0.01,-2.84 0,-4.26 -0.01,-0.74 -0.03,-1.37 0.58,-1.62 0.69,-0.29 1.13,0.17 1.25,0.74 0.48,1.01 -0.19,3.83 0.2,5.15l6.58 0c0.01,-1.42 0.01,-2.84 0,-4.26 -0.01,-0.74 -0.03,-1.37 0.58,-1.62 0.69,-0.29 1.13,0.17 1.25,0.74 0.48,1.01 -0.19,3.83 0.2,5.15l14.49 -0.01c-0.32,-1.21 -1.17,-2.5 -1.78,-3.15 -0.43,-0.46 -0.94,-0.83 -1.18,-1.29 -0.42,-0.79 0.42,-3.07 3.3,1.01 0.92,1.3 0.99,1.75 1.58,3.36 2.52,0.61 1.4,-2.46 1.16,-3.84 -0.08,-0.3 0.05,0.04 -0.09,-0.22 -0.03,-0.06 -0.15,-0.23 -0.19,-0.28l-1.41 -1.43c-1.64,-1.59 -3.5,-2.99 -4.96,-4.38l-7.11 -6.16c-1.34,-1.09 -1.44,-1.19 -1.07,-2.25 -0.58,-0.4 -1.04,-0.9 -1.59,-1.34 -1.51,0.71 -1.78,-0.44 -3.58,-1.84 -0.33,-0.25 -0.85,-0.83 -1.22,-0.91l-12.53 0c-0.34,0.08 -1.97,1.56 -2.34,1.88 -1.23,1.05 -3.24,2.95 -4.47,3.89 -1.46,1.12 -4.88,4.31 -6.66,5.76 -1.69,1.37 -3.82,3.44 -5.58,4.86 -0.77,0.62 -2.34,2.41 -2.92,3.35 -0.53,0.86 -0.93,1.84 -1.18,2.98z"/>
   <path class="fil2" d="M21.51 45.49c4.79,0.05 9.59,0.01 14.38,0.01 3.81,0 4.01,0.64 4.01,-3.23 0,-1.4 0.16,-6.27 -0.14,-7.18 -0.98,-0.29 -15.94,-0.13 -18.25,-0.13l0 10.54z"/>
   <path class="fil3" d="M43.26 45.5l7.99 -0.02c-0,-0.95 0,-1.89 -0,-2.84 -0,-0.97 -0.17,-2.05 0.87,-2.09 1.09,-0.05 0.98,1 0.98,1.97 -0,0.99 0,1.99 -0,2.98 1.11,-0.03 1.52,-0.37 1.55,-1.5 0.05,-1.55 0.09,-8.21 -0.15,-8.91 -0.87,-0.28 -5.04,-0.13 -6.32,-0.13l0 8.29c0,0.87 0.07,1.86 -0.87,1.91 -1.37,0.07 -0.97,-2.54 -0.97,-4.49 0,-1.89 -0.01,-3.79 0,-5.69l-3.08 -0.02 0 10.54z"/>
   <path class="fil4" d="M21.51 34.96c2.31,0 17.28,-0.16 18.25,0.13 0.3,0.92 0.14,5.78 0.14,7.18 0,3.87 -0.2,3.23 -4.01,3.23 -4.79,0 -9.6,0.04 -14.38,-0.01l0.02 1.53c1.04,-0 2.05,0 3.06,-0 1.28,-0.01 1.73,-0.18 2.04,1.02l1.78 0c0.23,-1.32 1.1,-1.03 2.45,-1.02l10.53 -0 0.04 -13.58 -19.9 -0 -0.02 1.52z"/>
   <path class="fil3" d="M6.76 45.5l3.08 0c-0,-0.95 0,-1.91 -0,-2.86 -0,-0.97 -0.16,-2.05 0.87,-2.09 1.1,-0.05 0.98,1 0.98,1.97 -0,0.99 0,1.99 -0,2.98l3.08 0 0 -10.54 -8 0 0 10.54z"/>
   <path class="fil3" d="M10.44 32.52l1.85 0c0.2,-1.28 1.65,-0.92 2.95,-0.92l11.82 0 -0 -1.53 -20 -0.01 -0.29 1.54c0.79,0 1.57,-0.01 2.33,-0 0.81,0.01 1.22,0.17 1.34,0.93z"/>
   <path class="fil5" d="M48.18 34.96c1.28,0 5.45,-0.15 6.32,0.13 0.24,0.69 0.2,7.35 0.15,8.91 -0.04,1.13 -0.44,1.47 -1.55,1.5l0.02 1.53 3.02 -0 0.04 -13.59 -7.97 -0 -0.02 1.52z"/>
   <path class="fil5" d="M16.59 34.96l1.4 0.13c0.29,0.85 0.14,4.7 0.14,5.95 0,2.96 0.48,4.39 -1.55,4.46l0.02 1.53 3 -0 0.06 -13.59 -3.07 0 -0 1.52z"/>
   <path class="fil3" d="M55.87 30.05l-14.49 0.01c-0.39,-1.31 0.28,-4.14 -0.2,-5.15l0.01 6.66 14.94 0.03 -0.26 -1.55z"/>
   <path class="fil3" d="M16.59 45.5c2.02,-0.07 1.55,-1.49 1.55,-4.46 0,-1.24 0.15,-5.1 -0.14,-5.95l-1.4 -0.13 0 10.54z"/>
   <path class="fil4" d="M27.32 5.46l8.29 0c-0.19,-0.42 -2,-1.82 -2.55,-2.29 -1.84,-1.56 -1.1,-1.92 -3.75,0.44 -0.36,0.32 -1.84,1.54 -1.99,1.85z"/>
   <path class="fil5" d="M6.76 34.96l8 0 -0.01 -1.52c-1.26,0 -2.24,0.3 -2.45,-0.92l-1.85 0c-0.14,0.81 -0.46,0.92 -1.34,0.93 -0.77,0.01 -1.55,-0.01 -2.33,-0.01l-0.02 1.52z"/>
   <polygon class="fil5" points="51.26,45.48 43.26,45.5 43.28,47.03 51.21,47.02 "/>
   <path class="fil3" d="M39.35 30.06l-6.58 0c-0.39,-1.31 0.28,-4.14 -0.2,-5.15l0.01 6.66 6.76 0.03 -0 -1.54z"/>
   <path class="fil0" d="M19.95 14.48c-0.39,0.18 -3.52,2.74 -3.57,3.35 -0.05,0.65 0.53,1.14 1.25,0.91 0.37,-0.12 2.02,-1.72 2.47,-2.09 0.31,-0.25 1.05,-0.69 1.09,-1.3 0.04,-0.71 -0.63,-1.14 -1.24,-0.87z"/>
   <path class="fil3" d="M57.79 29.98l0.21 1.61 3.06 -0.01c-0.1,-1.41 -0.8,-4.52 -2.1,-5.44 0.24,1.38 1.36,4.45 -1.16,3.84z"/>
   <polygon class="fil5" points="43.26,34.96 46.34,34.99 46.33,33.44 43.28,33.44 "/>
   <polygon class="fil5" points="9.84,45.5 6.76,45.5 6.77,47.03 9.8,47.03 "/>
   <path class="fil3" d="M5.14 29.98c-0.8,0.2 -2.2,0.07 -3.08,0.07l-0.2 1.5 3.09 0.04 0.19 -1.62z"/>
   <polygon class="fil5" points="14.75,45.5 11.68,45.5 11.69,47.03 14.7,47.03 "/>
   <path class="fil3" d="M30.75 30.06l-1.66 0c-0.39,-1.31 0.28,-4.14 -0.2,-5.15l0.01 6.66 1.85 0.03 -0 -1.54z"/>
  </g>
 </g>
</svg>
