<?xml version="1.0" encoding="UTF-8"?>
<!DOCTYPE svg PUBLIC "-//W3C//DTD SVG 1.1//EN" "http://www.w3.org/Graphics/SVG/1.1/DTD/svg11.dtd">
<!-- Creator: CorelDRAW -->
<svg xmlns="http://www.w3.org/2000/svg" xml:space="preserve" width="16mm" height="16mm" version="1.1" style="shape-rendering:geometricPrecision; text-rendering:geometricPrecision; image-rendering:optimizeQuality; fill-rule:evenodd; clip-rule:evenodd"
viewBox="0 0 51.66 51.66"
 xmlns:xlink="http://www.w3.org/1999/xlink"
 xmlns:xodm="http://www.corel.com/coreldraw/odm/2003">
 <defs>
  <style type="text/css">
   <![CDATA[
    .fil0 {fill:black}
   ]]>
  </style>
 </defs>
 <g id="Camada_x0020_1">
  <metadata id="CorelCorpID_0Corel-Layer"/>
  <g id="_1895354511424">
   <path class="fil0" d="M6.16 26.84c0,-3.46 0.43,-6.33 1.72,-9.18 2.05,-4.52 4.86,-7.36 9.38,-9.59 6.17,-3.04 14.59,-2.16 20.12,1.68 1,0.69 1.72,1.35 2.56,2.19 1.58,1.58 1.97,2.27 3.03,4.03 1.41,2.33 2.54,6.56 2.54,9.36 0,4.51 -0.67,6.88 -2.69,10.53 -2.95,5.32 -9.78,9.65 -15.97,9.65 -3.82,0 -5.99,-0.24 -9.45,-1.85 -1.12,-0.52 -2.6,-1.43 -3.55,-2.2l-1.31 -1.11c-0.77,-0.62 -1.63,-1.62 -2.23,-2.41 -2.27,-2.96 -4.14,-7.09 -4.14,-11.1zm18.81 -26.84l2.53 0c3.27,0.16 6.5,0.96 9.5,2.46 1.47,0.73 2.54,1.35 3.87,2.29 1.18,0.84 2.29,1.83 3.3,2.85 1.65,1.65 2.88,3.26 4.09,5.29 0.41,0.68 0.68,1.26 1.04,1.98 1.79,3.55 2.35,7.08 2.35,11.57 0,4.84 -2.11,10.56 -4.64,14.13 -0.44,0.61 -0.86,1.18 -1.34,1.78l-1.45 1.67c-1.41,1.4 -3.55,3.21 -5.24,4.14 -0.71,0.4 -1.33,0.72 -2.05,1.08 -2.88,1.46 -6.45,2.28 -10.05,2.42l-2.26 0c-1.91,-0.08 -3.79,-0.35 -5.53,-0.83 -8.6,-2.36 -16.17,-9.8 -18.28,-18.34 -0.69,-2.79 -0.79,-3.76 -0.81,-5.74l0 -1.93c0,-4.62 1.61,-8.73 3.5,-12.14l0.62 -0.99c0.21,-0.31 0.41,-0.6 0.62,-0.89 0.23,-0.32 0.47,-0.6 0.71,-0.91 1.13,-1.44 2.44,-2.75 3.87,-3.9 4.44,-3.59 10.02,-5.71 15.65,-5.98z"/>
   <path class="fil0" d="M22.8 33.4l-3.03 0 0 -15.14 3.03 0 0 6.05 6.05 0 0 -6.05 3.03 0 0 15.14 -3.03 0 0 -6.05 -6.05 0 0 6.05zm-13.62 -9.08l4.44 0 0 3.03 -4.44 0c0,2.53 1.54,6.21 3.05,8.25 1.64,2.21 3.68,4 6.16,5.24 1.28,0.64 4.09,1.65 5.92,1.65l0 -4.44 3.03 0 0 4.44c0.89,0 2.4,-0.34 3.16,-0.57 0.96,-0.28 1.92,-0.66 2.76,-1.08 4.2,-2.08 7.23,-5.76 8.62,-10.25 0.24,-0.77 0.59,-2.25 0.59,-3.24l-4.44 0 0 -3.03 4.44 0c0,-3.58 -2.39,-7.89 -4.82,-10.32 -1.29,-1.29 -2.68,-2.3 -4.4,-3.17 -1.34,-0.68 -3.99,-1.65 -5.92,-1.65l0 4.44 -3.03 0 0 -4.44c-0.97,0 -2.35,0.32 -3.17,0.57 -5.53,1.64 -9.67,5.82 -11.38,11.32 -0.22,0.72 -0.59,2.32 -0.59,3.24z"/>
  </g>
 </g>
</svg>
